<svg width="64" height="64" xmlns="http://www.w3.org/2000/svg">
 <g id="Layer_1">
  <title>Layer 1</title>
  <defs>
   <clipPath id="svg_15">
    <path id="svg_18" d="m15.15625,1.00026l34,0l0,62l-34,0l0,-62zm0,0"/>
   </clipPath>
   <clipPath id="svg_16">
    <path id="svg_19" d="m15.17969,59.32448c0,0 19.05859,9.33594 33.64062,-1.76172c-3.80468,-10.07031 -10.48047,-39.12891 -14.42187,-51.96094c-0.83985,-2.73828 -0.98047,-3.01172 -1.32422,-3.76172c-1.92188,-4.20312 -3.94531,8.15625 -7.23828,20.59766c-1.17969,4.46094 -10.65625,36.88672 -10.65625,36.88672zm0,0"/>
   </clipPath>
   <clipPath id="svg_13">
    <path id="svg_20" d="m18.15625,2.00026l31,0l0,60l-31,0l0,-60zm0,0"/>
   </clipPath>
   <clipPath id="svg_14">
    <path id="svg_21" d="m19.02344,57.26198c0,0 16.30469,9.44141 29.79687,0.30078c-0.36328,-1.58984 -1.28125,-4.14062 -1.90625,-6.51953c-3.32422,-12.63672 -9.33203,-33.97266 -12.26172,-44.56641c-3.17578,-11.46484 -4.20312,1.94141 -7.90625,16.21094c-1.125,4.33984 -7.72265,34.57422 -7.72265,34.57422zm0,0"/>
   </clipPath>
  </defs>
  <g id="svg_31">
   <g id="svg_12">
    <g id="svg_22" clip-rule="nonzero" clip-path="url(#svg_15)">
     <g id="svg_23" clip-rule="nonzero" clip-path="url(#svg_16)">
      <path id="svg_24" fill-rule="nonzero" fill="url(#svg_11)" d="m15.17969,59.32448c0,0 19.05859,9.33594 33.64062,-1.76172c-3.80468,-10.07031 -10.48047,-39.12891 -14.42187,-51.96094c-0.83985,-2.73828 -0.98047,-3.01172 -1.32422,-3.76172c-1.92188,-4.20312 -3.94531,8.15625 -7.23828,20.59766c-1.17969,4.46094 -10.65625,36.88672 -10.65625,36.88672"/>
     </g>
    </g>
    <g id="svg_25" clip-rule="nonzero" clip-path="url(#svg_13)">
     <g id="svg_26" clip-rule="nonzero" clip-path="url(#svg_14)">
      <path id="svg_27" fill-rule="nonzero" fill="url(#svg_10)" d="m19.02344,57.26198c0,0 16.30469,9.44141 29.79687,0.30078c-0.36328,-1.58984 -1.28125,-4.14062 -1.90625,-6.51953c-3.32422,-12.63672 -9.33203,-33.97266 -12.26172,-44.56641c-3.17578,-11.46484 -4.20312,1.94141 -7.90625,16.21094c-1.125,4.33984 -7.72265,34.57422 -7.72265,34.57422"/>
     </g>
    </g>
    <path id="svg_28" fill-rule="nonzero" fill="rgb(97.647059%,65.490196%,16.862745%)" d="m23.44141,49.07839l1.69531,-2.88282l1.58594,3.03907l-1.8125,3.92187l-1.46875,-4.07812m13.83984,-10.91797l1.69531,-2.88672l1.58203,3.03906l-1.8125,3.92188l-1.46484,-4.07422m-9.47266,-11.52735l1.69141,-2.88281l1.58203,3.03906l-1.80859,3.92188l-1.46485,-4.07813"/>
    <path id="svg_29" fill-rule="nonzero" fill="rgb(100%,94.901961%,0%)" d="m23.44141,49.07839l1.69922,-3.37891l1.58203,3.53516l-1.8125,2.89062l-1.46875,-3.04687m13.83984,-10.91797l1.69531,-3.38282l1.58203,3.53516l-1.80859,2.89063l-1.46875,-3.04297m-9.47266,-11.52735l1.69532,-3.3789l1.57812,3.53515l-1.80859,2.89063l-1.46485,-3.04688"/>
    <path id="svg_30" fill-rule="nonzero" fill="rgb(14.117647%,14.901961%,36.470588%)" d="m25.13281,56.98464c0,0 12.13672,1.99609 20.12891,-3.05079c-1.00391,3.05079 -9.96094,6.52344 -20.12891,3.05079"/>
   </g>
  </g>
 </g>
 <defs>
  <linearGradient gradientTransform="matrix(-68.35726165771484,26.899131774902344,-36.29391860961914,-50.66278076171875,82.87699127197266,16.11687469482422)" y2="0" x2="1" y1="0" x1="0" gradientUnits="userSpaceOnUse" id="svg_11">
   <stop stop-color="rgb(21.960784%,44.313725%,75.686275%)" offset="0"/>
   <stop stop-color="rgb(17.254902%,21.568627%,57.254902%)" offset="0.515"/>
   <stop stop-color="rgb(14.117647%,14.901961%,36.470588%)" offset="0.865"/>
   <stop stop-color="rgb(14.509804%,15.294118%,38.039216%)" offset="1"/>
  </linearGradient>
  <linearGradient gradientTransform="matrix(-39.89167404174805,7.712833881378174,-10.406617164611816,-29.565595626831055,49.80280685424805,30.405582427978516)" y2="0" x2="1" y1="0" x1="0" gradientUnits="userSpaceOnUse" id="svg_10">
   <stop stop-color="rgb(21.960784%,44.313725%,75.686275%)" offset="0"/>
   <stop stop-color="rgb(17.254902%,21.568627%,57.254902%)" offset="0.515"/>
   <stop stop-color="rgb(14.117647%,14.901961%,36.470588%)" offset="0.865"/>
   <stop stop-color="rgb(14.509804%,15.294118%,38.039216%)" offset="1"/>
  </linearGradient>
 </defs>
</svg>